<svg xmlns="http://www.w3.org/2000/svg" width="111.685" height="111.105" viewBox="0 0 111.685 111.105"><defs><linearGradient id="a" x1=".13" x2=".796" y1=".12" y2=".782" gradientUnits="objectBoundingBox"><stop offset="0" stop-color="#387eb8"/><stop offset="1" stop-color="#366994"/></linearGradient><linearGradient id="b" x1=".191" x2=".907" y1=".206" y2=".884" gradientUnits="objectBoundingBox"><stop offset="0" stop-color="#ffe052"/><stop offset="1" stop-color="#ffc331"/></linearGradient></defs><g transform="translate(-.145 -.072)"><path fill="url(#a)" d="M55.585.072C27.233.072,29,12.367,29,12.367l.031,12.738H56.091V28.93h-37.8S.145,26.873.145,55.48,15.981,83.075,15.981,83.075h9.451V69.8s-.509-15.836,15.583-15.836H67.849s15.077.244,15.077-14.571V14.9S85.216.072,55.585.072ZM40.666,8.638a4.863,4.863,0,1,1-3.443,1.424A4.863,4.863,0,0,1,40.666,8.638Z" data-name="Path 284"/><path fill="url(#b)" d="M93.526,147.328c28.353,0,26.583-12.3,26.583-12.3l-.031-12.738H93.021V118.47h37.8s18.143,2.058,18.143-26.551-15.836-27.594-15.836-27.594H123.68V77.6s.509,15.836-15.583,15.836H81.262s-15.077-.244-15.077,14.572v24.5S63.9,147.328,93.526,147.328Zm14.919-8.565a4.864,4.864,0,1,1,3.443-1.425,4.863,4.863,0,0,1-3.443,1.425Z" data-name="Path 285" transform="translate(-37.136 -36.151)"/></g></svg>