<?xml version="1.0" encoding="UTF-8"?><!DOCTYPE svg PUBLIC "-//W3C//DTD SVG 1.1//EN" "http://www.w3.org/Graphics/SVG/1.1/DTD/svg11.dtd"><svg xmlns="http://www.w3.org/2000/svg" xmlns:xlink="http://www.w3.org/1999/xlink" version="1.1" id="Layer_1" x="0px" y="0px" width="48px" height="48px" viewBox="0 0 48 48" xml:space="preserve" fill="#000"><path d="M15 24h3v-3h-3v3zm-3-12v3h3v-3h-3zm0 15h3v-3h-3v3zm9-9h-3v3h3v-3zM39 0H9a9 9 0 0 0-9 9v30c0 4.968 4.029 9 9 9h30c4.968 0 9-4.032 9-9V9c0-4.971-4.032-9-9-9zm3 39c0 1.659-1.341 3-3 3H9a3 3 0 0 1-3-3V9c0-1.656 1.344-3 3-3h30a3 3 0 0 1 3 3v30zM15 15v3h3v-3h-3zm6 12h9v-3h-9v3z"/><metadata><rdf:RDF xmlns:rdf="http://www.w3.org/1999/02/22-rdf-syntax-ns#" xmlns:rdfs="http://www.w3.org/2000/01/rdf-schema#" xmlns:dc="http://purl.org/dc/elements/1.1/"><rdf:Description about="https://iconscout.com/legal#licenses" dc:title="terminal" dc:description="terminal" dc:publisher="Iconscout" dc:date="2017-09-24" dc:format="image/svg+xml" dc:language="en"><dc:creator><rdf:Bag><rdf:li>Adam</rdf:li></rdf:Bag></dc:creator></rdf:Description></rdf:RDF></metadata></svg>